<svg width="25" height="25" viewBox="0 0 25 25" fill="none" xmlns="http://www.w3.org/2000/svg">
<g id="Frame" clip-path="url(#clip0_24897_633)">
<g id="Group">
<path id="Vector" d="M0.765625 4.57455H12.1846C12.5288 6.14106 13.9277 7.31711 15.5961 7.31711C17.2645 7.31711 18.6634 6.14111 19.0075 4.57455H23.2656C23.6798 4.57455 24.0156 4.23873 24.0156 3.82455C24.0156 3.41036 23.6798 3.07455 23.2656 3.07455H19.0072C18.6624 1.50883 17.2615 0.332031 15.5961 0.332031C13.9298 0.332031 12.5296 1.50864 12.1849 3.07455H0.765625C0.351437 3.07455 0.015625 3.41036 0.015625 3.82455C0.015625 4.23873 0.351437 4.57455 0.765625 4.57455ZM13.6036 3.82652L13.6037 3.81845C13.6069 2.72312 14.5007 1.83208 15.5961 1.83208C16.6899 1.83208 17.5837 2.72191 17.5885 3.81672L17.5886 3.82773C17.5869 4.92494 16.6937 5.81716 15.5961 5.81716C14.4989 5.81716 13.606 4.92583 13.6036 3.82928L13.6036 3.82652ZM23.2656 20.1127H19.0072C18.6623 18.547 17.2615 17.3702 15.5961 17.3702C13.9298 17.3702 12.5296 18.5469 12.1849 20.1127H0.765625C0.351437 20.1127 0.015625 20.4485 0.015625 20.8627C0.015625 21.277 0.351437 21.6127 0.765625 21.6127H12.1846C12.5288 23.1792 13.9277 24.3553 15.5961 24.3553C17.2645 24.3553 18.6634 23.1792 19.0075 21.6127H23.2656C23.6798 21.6127 24.0156 21.277 24.0156 20.8627C24.0156 20.4485 23.6798 20.1127 23.2656 20.1127ZM15.5961 22.8553C14.4989 22.8553 13.606 21.964 13.6036 20.8674L13.6036 20.8647L13.6037 20.8566C13.6069 19.7613 14.5007 18.8702 15.5961 18.8702C16.6899 18.8702 17.5837 19.76 17.5885 20.8548L17.5886 20.8658C17.587 21.9632 16.6938 22.8553 15.5961 22.8553ZM23.2656 11.5937H11.8466C11.5025 10.0271 10.1035 8.85114 8.43517 8.85114C6.7668 8.85114 5.36786 10.0271 5.0237 11.5937H0.765625C0.351437 11.5937 0.015625 11.9295 0.015625 12.3437C0.015625 12.7579 0.351437 13.0937 0.765625 13.0937H5.02408C5.36894 14.6593 6.76975 15.8362 8.43517 15.8362C10.1015 15.8362 11.5017 14.6595 11.8464 13.0937H23.2656C23.6798 13.0937 24.0156 12.7579 24.0156 12.3437C24.0156 11.9295 23.6798 11.5937 23.2656 11.5937ZM10.4276 12.3417L10.4276 12.3497C10.4243 13.4451 9.53055 14.3361 8.43517 14.3361C7.34134 14.3361 6.44753 13.4463 6.4428 12.3515L6.44266 12.3406C6.4443 11.2432 7.3375 10.3511 8.43517 10.3511C9.53233 10.3511 10.4252 11.2424 10.4277 12.339L10.4276 12.3417Z" fill="#637381"/>
</g>
</g>
<defs>
<clipPath id="clip0_24897_633">
<rect width="24" height="24" fill="white" transform="translate(0.015625 0.34375)"/>
</clipPath>
</defs>
</svg>
