<svg width="38" height="38" viewBox="0 0 38 38" fill="none" xmlns="http://www.w3.org/2000/svg">
<g id="linkedin (1) 1" clip-path="url(#clip0_24963_2277)">
<g id="Layer 2">
<g id="linkedin">
<path id="background" d="M32.1205 0.0332031H5.20324C2.41586 0.0332031 0.15625 2.29282 0.15625 5.08019V31.9975C0.15625 34.7848 2.41586 37.0444 5.20324 37.0444H32.1205C34.9079 37.0444 37.1675 34.7848 37.1675 31.9975V5.08019C37.1675 2.29282 34.9079 0.0332031 32.1205 0.0332031Z" fill="#0077B5"/>
<g id="icon">
<path id="Vector" d="M13.4884 10.127C13.4884 10.7509 13.3034 11.3608 12.9568 11.8795C12.6102 12.3982 12.1176 12.8025 11.5412 13.0413C10.9648 13.28 10.3306 13.3425 9.71867 13.2208C9.10678 13.0991 8.54473 12.7986 8.10358 12.3575C7.66244 11.9164 7.36201 11.3543 7.2403 10.7424C7.11859 10.1305 7.18105 9.49628 7.4198 8.9199C7.65855 8.34351 8.06285 7.85087 8.58158 7.50426C9.10032 7.15766 9.71018 6.97266 10.3341 6.97266C11.1706 6.97266 11.973 7.30499 12.5645 7.89655C13.1561 8.48811 13.4884 9.29043 13.4884 10.127Z" fill="white"/>
<path id="Vector_2" d="M12.77 15.3848V29.3208C12.7705 29.4236 12.7508 29.5255 12.7118 29.6207C12.6728 29.7158 12.6155 29.8023 12.543 29.8752C12.4705 29.9481 12.3843 30.0059 12.2893 30.0454C12.1944 30.0849 12.0926 30.1052 11.9898 30.1052H8.6651C8.56229 30.1055 8.46044 30.0854 8.3654 30.0462C8.27037 30.007 8.18402 29.9494 8.11132 29.8767C8.03862 29.804 7.98101 29.7177 7.9418 29.6226C7.90258 29.5276 7.88254 29.4257 7.88282 29.3229V15.3848C7.88282 15.1773 7.96523 14.9784 8.11194 14.8317C8.25865 14.685 8.45762 14.6025 8.6651 14.6025H11.9898C12.1969 14.6031 12.3953 14.6858 12.5416 14.8324C12.6879 14.9791 12.77 15.1777 12.77 15.3848Z" fill="white"/>
<path id="Vector_3" d="M30.1533 22.6397V29.3859C30.1536 29.4804 30.1351 29.5741 30.0991 29.6614C30.0631 29.7488 30.0101 29.8282 29.9433 29.8951C29.8764 29.9619 29.797 30.0149 29.7096 30.0509C29.6223 30.0869 29.5286 30.1054 29.4341 30.1051H25.8591C25.7646 30.1054 25.671 30.0869 25.5836 30.0509C25.4962 30.0149 25.4168 29.9619 25.35 29.8951C25.2831 29.8282 25.2302 29.7488 25.1941 29.6614C25.1581 29.5741 25.1397 29.4804 25.1399 29.3859V22.8479C25.1399 21.8722 25.4259 18.5748 22.5891 18.5748C20.3916 18.5748 19.9436 20.8312 19.8553 21.8448V29.3859C19.8553 29.5748 19.781 29.7562 19.6484 29.8908C19.5158 30.0253 19.3356 30.1023 19.1466 30.1051H15.6937C15.5993 30.1051 15.5059 30.0865 15.4188 30.0503C15.3316 30.0141 15.2525 29.9611 15.1859 29.8943C15.1192 29.8275 15.0665 29.7482 15.0305 29.6609C14.9946 29.5737 14.9763 29.4802 14.9766 29.3859V15.3237C14.9763 15.2294 14.9946 15.1359 15.0305 15.0486C15.0665 14.9614 15.1192 14.8821 15.1859 14.8153C15.2525 14.7485 15.3316 14.6955 15.4188 14.6593C15.5059 14.6231 15.5993 14.6045 15.6937 14.6045H19.1466C19.3374 14.6045 19.5203 14.6803 19.6552 14.8152C19.7901 14.95 19.8658 15.133 19.8658 15.3237V16.5392C20.6818 15.3153 21.8909 14.3711 24.4712 14.3711C30.1869 14.3711 30.1533 19.7083 30.1533 22.6397Z" fill="white"/>
</g>
</g>
</g>
</g>
<defs>
<clipPath id="clip0_24963_2277">
<rect width="37.0112" height="37.0112" fill="white" transform="translate(0.15625 0.0341797)"/>
</clipPath>
</defs>
</svg>
