<svg width="33" height="32" viewBox="0 0 33 32" fill="none" xmlns="http://www.w3.org/2000/svg">
<g id="Frame">
<g id="Group">
<path id="Vector" d="M21.4594 21.1428C24.8646 15.7995 24.4366 16.4661 24.5347 16.3268C25.7744 14.5782 26.4297 12.5201 26.4297 10.375C26.4297 4.68625 21.8134 0 16.1172 0C10.4396 0 5.80469 4.677 5.80469 10.375C5.80469 12.5188 6.47369 14.6307 7.75406 16.4029L10.7748 21.1429C7.54513 21.6392 2.05469 23.1182 2.05469 26.375C2.05469 27.5622 2.82956 29.2541 6.52106 30.5724C9.09869 31.493 12.5066 32 16.1172 32C22.8687 32 30.1797 30.0955 30.1797 26.375C30.1797 23.1177 24.6957 21.6402 21.4594 21.1428ZM9.32025 15.3716C9.30995 15.3555 9.29917 15.3397 9.28794 15.3242C8.2225 13.8584 7.67969 12.1213 7.67969 10.375C7.67969 5.68638 11.4551 1.875 16.1172 1.875C20.7696 1.875 24.5547 5.68806 24.5547 10.375C24.5547 12.1241 24.0221 13.8023 23.0143 15.2294C22.924 15.3486 23.3952 14.6166 16.1172 26.0368L9.32025 15.3716ZM16.1172 30.125C8.74256 30.125 3.92969 27.9573 3.92969 26.375C3.92969 25.3115 6.40269 23.5628 11.8827 22.8812L15.3266 28.2851C15.4113 28.4181 15.5281 28.5275 15.6663 28.6033C15.8044 28.6791 15.9595 28.7188 16.1171 28.7188C16.2747 28.7188 16.4298 28.6791 16.568 28.6033C16.7062 28.5275 16.823 28.4181 16.9077 28.2851L20.3515 22.8812C25.8316 23.5628 28.3047 25.3115 28.3047 26.375C28.3047 27.9439 23.5351 30.125 16.1172 30.125Z" fill="#919EAB"/>
<path id="Vector_2" d="M16.1172 5.6875C13.5325 5.6875 11.4297 7.79031 11.4297 10.375C11.4297 12.9597 13.5325 15.0625 16.1172 15.0625C18.7019 15.0625 20.8047 12.9597 20.8047 10.375C20.8047 7.79031 18.7019 5.6875 16.1172 5.6875ZM16.1172 13.1875C14.5664 13.1875 13.3047 11.9258 13.3047 10.375C13.3047 8.82419 14.5664 7.5625 16.1172 7.5625C17.668 7.5625 18.9297 8.82419 18.9297 10.375C18.9297 11.9258 17.668 13.1875 16.1172 13.1875Z" fill="#919EAB"/>
</g>
</g>
</svg>
