<svg width="46" height="45" viewBox="0 0 46 45" fill="none" xmlns="http://www.w3.org/2000/svg">
<g id="Frame">
<g id="Group">
<path id="Vector" d="M21.1406 35.625C18.1739 35.625 15.2738 34.7453 12.8071 33.0971C10.3403 31.4488 8.41775 29.1062 7.28244 26.3653C6.14712 23.6244 5.85007 20.6084 6.42885 17.6987C7.00763 14.7889 8.43624 12.1162 10.534 10.0184C12.6318 7.92062 15.3046 6.49201 18.2143 5.91323C21.124 5.33445 24.14 5.6315 26.8809 6.76681C29.6218 7.90213 31.9645 9.82472 33.6127 12.2915C35.2609 14.7582 36.1406 17.6583 36.1406 20.625C36.1362 24.6019 34.5544 28.4146 31.7423 31.2267C28.9302 34.0388 25.1175 35.6205 21.1406 35.625ZM21.1406 9.37501C18.9156 9.37501 16.7405 10.0348 14.8905 11.271C13.0404 12.5071 11.5985 14.2642 10.747 16.3198C9.8955 18.3755 9.67271 20.6375 10.1068 22.8198C10.5409 25.0021 11.6123 27.0066 13.1857 28.58C14.759 30.1533 16.7636 31.2248 18.9459 31.6588C21.1282 32.0929 23.3902 31.8701 25.4458 31.0187C27.5015 30.1672 29.2585 28.7252 30.4947 26.8752C31.7308 25.0251 32.3906 22.85 32.3906 20.625C32.3877 17.6422 31.2014 14.7825 29.0923 12.6733C26.9832 10.5642 24.1234 9.37799 21.1406 9.37501Z" fill="#637381"/>
<path id="Vector_2" d="M38.016 39.3754C37.5188 39.3753 37.0419 39.1777 36.6904 38.826L29.1904 31.326C28.8489 30.9724 28.6599 30.4988 28.6641 30.0071C28.6684 29.5155 28.8656 29.0453 29.2132 28.6976C29.5609 28.35 30.0312 28.1528 30.5228 28.1485C31.0144 28.1442 31.488 28.3332 31.8416 28.6748L39.3416 36.1748C39.6038 36.437 39.7823 36.771 39.8546 37.1347C39.9269 37.4984 39.8898 37.8753 39.7479 38.2179C39.606 38.5604 39.3658 38.8532 39.0575 39.0593C38.7492 39.2653 38.3868 39.3753 38.016 39.3754Z" fill="#637381"/>
</g>
</g>
</svg>
