<svg width="23" height="23" viewBox="0 0 23 23" fill="none" xmlns="http://www.w3.org/2000/svg">
<g id="Frame" clip-path="url(#clip0_24877_1396)">
<g id="Group">
<path id="Vector" d="M22.8059 8.13053C22.7356 7.91252 22.6026 7.72003 22.4236 7.57707C22.2446 7.4341 22.0275 7.34698 21.7993 7.32656L15.4495 6.74995L12.9387 0.872963C12.7535 0.442277 12.3318 0.163574 11.8634 0.163574C11.3949 0.163574 10.9733 0.44232 10.7881 0.874038L8.27724 6.74999L1.92643 7.32656C1.69853 7.34744 1.48176 7.43474 1.30301 7.57766C1.12425 7.72057 0.991378 7.9128 0.920851 8.13053C0.776 8.57604 0.909765 9.06465 1.26276 9.37266L6.06249 13.582L4.64715 19.8165C4.5436 20.2749 4.72149 20.7488 5.10186 21.0237C5.30627 21.1714 5.54548 21.2466 5.78667 21.2466C5.99464 21.2466 6.2009 21.1905 6.3861 21.0797L11.8634 17.8061L17.3387 21.0797C17.7393 21.3208 18.2444 21.2988 18.6239 21.0237C18.8097 20.8892 18.9519 20.7031 19.0327 20.4884C19.1136 20.2738 19.1295 20.0401 19.0786 19.8165L17.6633 13.582L22.463 9.37352C22.6357 9.22272 22.7602 9.02451 22.8212 8.80353C22.8821 8.58255 22.8768 8.34852 22.8059 8.13053Z" fill="#2F80ED"/>
</g>
</g>
<defs>
<clipPath id="clip0_24877_1396">
<rect width="22" height="22" fill="white" transform="translate(0.863281 0.121094)"/>
</clipPath>
</defs>
</svg>
